<?xml version="1.0" encoding="UTF-8"?>
<svg version="1.1" xmlns="http://www.w3.org/2000/svg" width="512" height="512">
<path d="M0 0 C1.01201477 0.00054382 2.02402954 0.00108765 3.06671143 0.00164795 C19.59887291 0.04238923 35.523992 0.95817716 51.75 4.375 C52.78125 4.58930664 53.8125 4.80361328 54.875 5.02441406 C101.10680927 14.94980561 143.72188765 37.60106665 177.75 70.375 C178.7390332 71.32318604 178.7390332 71.32318604 179.74804688 72.29052734 C189.23630305 81.43497479 197.9762044 90.73234009 205.75 101.375 C206.60806152 102.52605017 207.46613451 103.67709177 208.32421875 104.828125 C214.36236829 113.01930614 219.72095521 121.53304105 224.75 130.375 C225.11448242 131.00680176 225.47896484 131.63860352 225.85449219 132.28955078 C240.78473018 158.37464001 250.26385054 187.71085114 254.75 217.375 C254.92660156 218.49745117 255.10320312 219.61990234 255.28515625 220.77636719 C256.9420586 232.38947743 257.14873513 243.90679945 257.125 255.625 C257.12418427 257.14302216 257.12418427 257.14302216 257.12335205 258.69171143 C257.08261077 275.22387291 256.16682284 291.148992 252.75 307.375 C252.42854004 308.921875 252.42854004 308.921875 252.10058594 310.5 C242.17519439 356.73180927 219.52393335 399.34688765 186.75 433.375 C186.11787598 434.03435547 185.48575195 434.69371094 184.83447266 435.37304688 C175.69002521 444.86130305 166.39265991 453.6012044 155.75 461.375 C154.59894983 462.23306152 153.44790823 463.09113451 152.296875 463.94921875 C144.10569386 469.98736829 135.59195895 475.34595521 126.75 480.375 C126.11819824 480.73948242 125.48639648 481.10396484 124.83544922 481.47949219 C98.75035999 496.40973018 69.41414886 505.88885054 39.75 510.375 C38.62754883 510.55160156 37.50509766 510.72820312 36.34863281 510.91015625 C24.73552257 512.5670586 13.21820055 512.77373513 1.5 512.75 C-0.01802216 512.74918427 -0.01802216 512.74918427 -1.56671143 512.74835205 C-18.09887291 512.70761077 -34.023992 511.79182284 -50.25 508.375 C-51.796875 508.05354004 -51.796875 508.05354004 -53.375 507.72558594 C-99.60680927 497.80019439 -142.22188765 475.14893335 -176.25 442.375 C-176.90935547 441.74287598 -177.56871094 441.11075195 -178.24804688 440.45947266 C-187.73630305 431.31502521 -196.4762044 422.01765991 -204.25 411.375 C-205.10806152 410.22394983 -205.96613451 409.07290823 -206.82421875 407.921875 C-212.86236829 399.73069386 -218.22095521 391.21695895 -223.25 382.375 C-223.61448242 381.74319824 -223.97896484 381.11139648 -224.35449219 380.46044922 C-239.28473018 354.37535999 -248.76385054 325.03914886 -253.25 295.375 C-253.51490234 293.69132324 -253.51490234 293.69132324 -253.78515625 291.97363281 C-255.4420586 280.36052257 -255.64873513 268.84320055 -255.625 257.125 C-255.62445618 256.11298523 -255.62391235 255.10097046 -255.62335205 254.05828857 C-255.58261077 237.52612709 -254.66682284 221.601008 -251.25 205.375 C-251.03569336 204.34375 -250.82138672 203.3125 -250.60058594 202.25 C-240.67519439 156.01819073 -218.02393335 113.40311235 -185.25 79.375 C-184.61787598 78.71564453 -183.98575195 78.05628906 -183.33447266 77.37695312 C-174.19002521 67.88869695 -164.89265991 59.1487956 -154.25 51.375 C-153.09894983 50.51693848 -151.94790823 49.65886549 -150.796875 48.80078125 C-142.60569386 42.76263171 -134.09195895 37.40404479 -125.25 32.375 C-124.61819824 32.01051758 -123.98639648 31.64603516 -123.33544922 31.27050781 C-97.25035999 16.34026982 -67.91414886 6.86114946 -38.25 2.375 C-37.12754883 2.19839844 -36.00509766 2.02179687 -34.84863281 1.83984375 C-23.23552257 0.1829414 -11.71820055 -0.02373513 0 0 Z " fill="#AA5500" transform="translate(255.25,-0.375)"/>
<path d="M0 0 C1.12112938 -0.00855011 1.12112938 -0.00855011 2.26490784 -0.01727295 C3.84057226 -0.0266588 5.41625575 -0.03323116 6.99194336 -0.03710938 C9.34200707 -0.04672404 11.69115966 -0.07777034 14.04101562 -0.109375 C27.92902833 -0.20810884 41.54245891 1.2566421 54.56640625 6.390625 C55.35144531 6.69178223 56.13648438 6.99293945 56.9453125 7.30322266 C69.28282623 12.16974195 80.08494605 18.19903164 89.94140625 27.203125 C90.72 27.90050781 91.49859375 28.59789063 92.30078125 29.31640625 C107.06321349 43.238907 117.49096497 63.02302032 119.94140625 83.203125 C119.94140625 86.833125 119.94140625 90.463125 119.94140625 94.203125 C106.41140625 94.203125 92.88140625 94.203125 78.94140625 94.203125 C77.95140625 88.263125 76.96140625 82.323125 75.94140625 76.203125 C71.26872315 61.66588868 64.40534968 50.6848183 50.5859375 43.4453125 C47.39686782 41.95347651 44.19695628 40.54289264 40.94140625 39.203125 C40.15386963 38.87054688 39.36633301 38.53796875 38.55493164 38.1953125 C29.69550264 34.83195711 20.1912022 34.8303852 10.83642578 34.83251953 C8.70783609 34.82815866 6.58134876 34.79174352 4.453125 34.75390625 C-12.94181547 34.61011525 -30.00243369 39.43493311 -42.984375 51.625 C-52.33464315 63.24680222 -54.84240084 75.60656656 -54.05859375 90.203125 C-52.54164297 101.15578799 -46.5315448 110.04183147 -38.12109375 117.07421875 C-21.41246448 128.68927353 -2.13085773 135.07382855 17.25390625 140.640625 C43.07518903 148.05905059 69.92524262 156.90410596 90.94140625 174.203125 C91.85792969 174.95207031 92.77445313 175.70101562 93.71875 176.47265625 C109.40541409 189.9419573 119.37668327 208.04814717 121.16015625 228.74121094 C122.3727017 249.2408075 117.89876015 268.86217059 104.94140625 285.203125 C104.28398437 286.03714844 103.6265625 286.87117188 102.94921875 287.73046875 C84.81746904 309.28267674 55.05386773 318.56592632 27.94140625 321.203125 C-9.14429721 323.51346763 -48.14084341 316.75615655 -76.8671875 291.62060547 C-92.34947463 277.61535471 -103.60513395 260.30287926 -106.05859375 239.203125 C-106.05859375 234.913125 -106.05859375 230.623125 -106.05859375 226.203125 C-92.52859375 226.203125 -78.99859375 226.203125 -65.05859375 226.203125 C-64.39859375 231.483125 -63.73859375 236.763125 -63.05859375 242.203125 C-60.31339942 250.90931274 -57.30138766 257.55479527 -51.05859375 264.203125 C-50.3625 264.95207031 -49.66640625 265.70101563 -48.94921875 266.47265625 C-33.25642966 281.92847369 -11.41019022 286.38237061 9.89013672 286.44335938 C11.90896346 286.45297055 13.92672776 286.48401516 15.9453125 286.515625 C28.22037917 286.56362135 40.42503147 285.41897103 51.37890625 279.390625 C52.04720459 279.03661621 52.71550293 278.68260742 53.40405273 278.31787109 C64.59588599 272.27140968 72.64035549 264.98635663 76.43359375 252.40625 C79.46301336 239.26322953 79.56066909 224.24517507 72.31640625 212.453125 C56.31837893 190.98107387 25.7406674 184.13475577 1.44140625 176.765625 C-31.83696367 166.64502041 -70.05390405 152.51069357 -88.40625 120.6171875 C-96.92309441 103.01973593 -100.12879517 80.05829147 -93.93359375 61.203125 C-90.11355744 51.06286008 -84.9805482 42.5005002 -78.05859375 34.203125 C-77.2903125 33.22988281 -76.52203125 32.25664062 -75.73046875 31.25390625 C-73.11982016 28.13047805 -70.12387581 25.63324167 -66.87109375 23.203125 C-66.01136963 22.55585449 -66.01136963 22.55585449 -65.13427734 21.89550781 C-46.55236181 8.08469465 -23.21158873 0.14238065 0 0 Z " fill="#FEFDFD" transform="translate(249.05859375,95.796875)"/>
</svg>
